<?xml version="1.0" encoding="UTF-8" standalone="no"?>
<!-- Created with Inkscape (http://www.inkscape.org/) -->

<svg
   width="256"
   height="256"
   viewBox="0 0 67.733328 67.733335"
   version="1.1"
   id="svg1"
   xml:space="preserve"
   inkscape:version="1.4.3 (0d15f75, 2025-12-25)"
   sodipodi:docname="logo.svg"
   xmlns:inkscape="http://www.inkscape.org/namespaces/inkscape"
   xmlns:sodipodi="http://sodipodi.sourceforge.net/DTD/sodipodi-0.dtd"
   xmlns="http://www.w3.org/2000/svg"
   xmlns:svg="http://www.w3.org/2000/svg"><sodipodi:namedview
     id="namedview1"
     pagecolor="#ffffff"
     bordercolor="#000000"
     borderopacity="0.25"
     inkscape:showpageshadow="2"
     inkscape:pageopacity="0.0"
     inkscape:pagecheckerboard="true"
     inkscape:deskcolor="#d1d1d1"
     inkscape:document-units="mm"
     inkscape:zoom="2.0792508"
     inkscape:cx="98.833674"
     inkscape:cy="112.30006"
     inkscape:window-width="2560"
     inkscape:window-height="1369"
     inkscape:window-x="-8"
     inkscape:window-y="-8"
     inkscape:window-maximized="1"
     inkscape:current-layer="layer1" /><defs
     id="defs1"><inkscape:path-effect
       effect="fillet_chamfer"
       id="path-effect7"
       is_visible="true"
       lpeversion="1"
       nodesatellites_param="F,0,0,1,0,0.5291771,0,1 @ F,0,0,1,0,0.5291771,0,1 @ F,0,0,1,0,0.5291771,0,1 @ F,0,0,1,0,0.5291771,0,1 @ F,0,0,1,0,0.5291771,0,1 @ F,0,0,1,0,0.5291771,0,1 @ F,0,0,1,0,0.5291771,0,1 @ F,0,0,1,0,0.5291771,0,1 @ F,0,0,1,0,0.5291771,0,1 @ F,0,0,1,0,0.5291771,0,1 @ F,0,0,1,0,0.5291771,0,1 @ F,0,0,1,0,0.5291771,0,1 @ F,0,0,1,0,0.5291771,0,1 @ F,0,0,1,0,0.5291771,0,1 @ F,0,0,1,0,0.5291771,0,1 @ F,0,0,1,0,0.5291771,0,1 @ F,0,0,1,0,0.5291771,0,1 @ F,0,0,1,0,0.5291771,0,1 @ F,0,0,1,0,0.5291771,0,1 @ F,0,0,1,0,0.5291771,0,1 @ F,0,0,1,0,0.5291771,0,1 @ F,0,0,1,0,0.5291771,0,1 @ F,0,0,1,0,0.5291771,0,1 @ F,0,0,1,0,0.5291771,0,1 @ F,0,0,1,0,0.5291771,0,1 @ F,0,0,1,0,0.5291771,0,1 @ F,0,0,1,0,0.5291771,0,1 @ F,0,0,1,0,0.5291771,0,1 | F,0,0,1,0,0.5291771,0,1 @ F,0,0,1,0,0.5291771,0,1 @ F,0,0,1,0,0.5291771,0,1 @ F,0,0,1,0,0.5291771,0,1"
       radius="2"
       unit="px"
       method="auto"
       mode="F"
       chamfer_steps="1"
       flexible="false"
       use_knot_distance="true"
       apply_no_radius="true"
       apply_with_radius="true"
       only_selected="false"
       hide_knots="false" /><inkscape:path-effect
       effect="fillet_chamfer"
       id="path-effect6"
       is_visible="true"
       lpeversion="1"
       nodesatellites_param="F,0,0,1,0,0.79374994,0,1 @ F,0,0,1,0,0.79374994,0,1 @ F,0,0,1,0,0.79374994,0,1 @ F,0,0,1,0,0.79374994,0,1 | F,0,0,1,0,0.79374994,0,1 @ F,0,0,1,0,0.79374994,0,1 @ F,0,0,1,0,0.79374994,0,1 @ F,0,0,1,0,0.79374994,0,1 @ F,0,0,1,0,0.79374994,0,1 @ F,0,0,1,0,0.79374994,0,1 @ F,0,0,1,0,0.79374994,0,1 | F,0,0,1,0,0.79374994,0,1 @ F,0,0,1,0,0.79374994,0,1 @ F,0,0,1,0,0.79374994,0,1 @ F,0,0,1,0,0.79374994,0,1 @ F,0,0,1,0,0.79374994,0,1 @ F,0,0,1,0,0.79374994,0,1 @ F,0,0,1,0,0.79374994,0,1"
       radius="3"
       unit="px"
       method="auto"
       mode="F"
       chamfer_steps="1"
       flexible="false"
       use_knot_distance="true"
       apply_no_radius="true"
       apply_with_radius="true"
       only_selected="false"
       hide_knots="false" /><inkscape:path-effect
       effect="offset"
       id="path-effect5"
       is_visible="true"
       lpeversion="1.3"
       linejoin_type="miter"
       unit="mm"
       offset="-0.4"
       miter_limit="4"
       attempt_force_join="false"
       update_on_knot_move="true" /><inkscape:path-effect
       effect="fillet_chamfer"
       id="path-effect4"
       is_visible="true"
       lpeversion="1"
       nodesatellites_param="F,0,0,1,0,1.3229166,0,1 @ F,0,0,1,0,1.3229166,0,1 @ F,0,0,1,0,1.3229166,0,1 @ F,0,0,1,0,1.3229166,0,1 @ F,0,0,1,0,1.3229166,0,1 @ F,0,0,1,0,1.3229166,0,1 @ F,0,0,1,0,1.3229166,0,1 @ F,0,0,1,0,1.3229166,0,1 @ F,0,0,1,0,1.3229166,0,1 @ F,0,0,1,0,1.3229166,0,1 @ F,0,0,1,0,1.3229166,0,1 @ F,0,0,1,0,1.3229166,0,1 @ F,0,0,1,0,1.3229166,0,1 @ F,0,0,1,0,1.3229166,0,1 @ F,0,0,1,0,1.3229166,0,1 @ F,0,0,1,0,1.3229166,0,1 @ F,0,0,1,0,1.3229166,0,1"
       radius="5"
       unit="px"
       method="auto"
       mode="F"
       chamfer_steps="1"
       flexible="false"
       use_knot_distance="true"
       apply_no_radius="true"
       apply_with_radius="true"
       only_selected="false"
       hide_knots="false" /><inkscape:path-effect
       effect="offset"
       id="path-effect3"
       is_visible="true"
       lpeversion="1.3"
       linejoin_type="round"
       unit="px"
       offset="-5.679528"
       miter_limit="4"
       attempt_force_join="false"
       update_on_knot_move="true" /><inkscape:path-effect
       effect="fillet_chamfer"
       id="path-effect2"
       is_visible="true"
       lpeversion="1"
       nodesatellites_param="F,0,0,1,0,0.79374994,0,1 @ F,0,0,1,0,0.79374994,0,1 @ F,0,0,1,0,0.79374994,0,1 @ F,0,0,1,0,0.79374994,0,1 @ F,0,0,1,0,0.79374994,0,1 @ F,0,0,1,0,0.79374994,0,1 @ F,0,0,1,0,0.79374994,0,1 @ F,0,0,1,0,0.79374994,0,1 @ F,0,0,1,0,0.79374994,0,1 @ F,0,0,1,0,0.79374994,0,1 @ F,0,0,1,0,0.79374994,0,1 @ F,0,0,1,0,0.79374994,0,1 @ F,0,0,1,0,0.79374994,0,1 @ F,0,0,1,0,0.79374994,0,1 @ F,0,0,1,0,0.79374994,0,1 @ F,0,0,1,0,0.79374994,0,1 @ F,0,0,1,0,0.79374994,0,1 | F,0,0,1,0,0.79374994,0,1 @ F,0,0,1,0,0.79374994,0,1 @ F,0,0,1,0,0.79374994,0,1 @ F,0,0,1,0,0.79374994,0,1 @ F,0,0,1,0,0.79374994,0,1 @ F,0,0,1,0,0.79374994,0,1 @ F,0,0,1,0,0.79374994,0,1 @ F,0,0,1,0,0.79374994,0,1 @ F,0,0,1,0,0.79374994,0,1 @ F,0,0,1,0,0.79374994,0,1 @ F,0,0,1,0,0.79374994,0,1 @ F,0,0,1,0,0.79374994,0,1 @ F,0,0,1,0,0.79374994,0,1 @ F,0,0,1,0,0.79374994,0,1 @ F,0,0,1,0,0.79374994,0,1 @ F,0,0,1,0,0.79374994,0,1 @ F,0,0,1,0,0.79374994,0,1 @ F,0,0,1,0,0.79374994,0,1 @ F,0,0,1,0,0.79374994,0,1 @ F,0,0,1,0,0.79374994,0,1 @ F,0,0,1,0,0.79374994,0,1 @ F,0,0,1,0,0.79374994,0,1 @ F,0,0,1,0,0.79374994,0,1 @ F,0,0,1,0,0.79374994,0,1 @ F,0,0,1,0,0.79374994,0,1 @ F,0,0,1,0,0.79374994,0,1 @ F,0,0,1,0,0.79374994,0,1 @ F,0,0,1,0,0.79374994,0,1 | F,0,0,1,0,0.79374994,0,1 @ F,0,0,1,0,0.79374994,0,1 @ F,0,0,1,0,0.79374994,0,1 @ F,0,0,1,0,0.79374994,0,1"
       radius="3"
       unit="px"
       method="bezier"
       mode="F"
       chamfer_steps="1"
       flexible="false"
       use_knot_distance="true"
       apply_no_radius="true"
       apply_with_radius="true"
       only_selected="false"
       hide_knots="false" /></defs><g
     inkscape:label="Layer 1"
     inkscape:groupmode="layer"
     id="layer1"><path
       style="font-size:32.9705px;font-family:'Bauhaus 93';-inkscape-font-specification:'Bauhaus 93, ';baseline-shift:baseline;fill:#0079d6;stroke-width:2.74753"
       d="m 29.27509,7.1431391 c -1.891545,0.1988987 -3.505834,0.8433228 -4.945788,1.9661781 -0.575916,0.4490911 -1.420431,1.2873418 -1.872928,1.8604258 -1.12102,1.419767 -1.765453,3.012484 -1.966088,4.879441 -0.07804,0.72622 -0.07807,1.915142 -3.46e-4,2.641273 0.197053,1.840914 0.824258,3.406214 1.911449,4.798058 0.449551,0.575526 1.293288,1.415069 1.871235,1.861294 1.400084,1.080982 2.980919,1.705715 4.842089,1.900708 0.726429,0.07611 1.914855,0.07571 2.641834,0.0057 1.754887,-0.169098 3.203227,-0.689832 4.434943,-1.563733 0.595347,-0.422399 1.45143,-1.252454 1.898608,-1.829436 0.730227,-0.942192 1.309351,-2.064969 1.729573,-3.394871 0.220063,-0.696448 -0.2516,-1.293477 -0.981974,-1.312687 l -1.142191,-0.03004 c -0.730374,-0.01921 -1.450422,0.549526 -1.74549,1.216912 -0.122976,0.278147 -0.262993,0.544447 -0.420996,0.797865 -0.385714,0.618641 -1.232304,1.474497 -1.855297,1.852634 -0.609144,0.369732 -1.289498,0.618135 -2.019699,0.750662 -0.717908,0.130297 -1.915338,0.131327 -2.63114,-0.0093 -0.781424,-0.153488 -1.502309,-0.449741 -2.153315,-0.890234 -0.603975,-0.408671 -1.428696,-1.281219 -1.808568,-1.903778 -0.418861,-0.686454 -0.698461,-1.443729 -0.841309,-2.253816 -0.126717,-0.718613 -0.126262,-1.913802 -0.0056,-2.633542 0.142099,-0.847541 0.42677,-1.636698 0.85769,-2.349008 0.377507,-0.624017 1.197245,-1.500415 1.796522,-1.916062 0.679194,-0.471075 1.432961,-0.785768 2.25206,-0.945229 0.716076,-0.139405 1.914722,-0.140558 2.629915,0.0029 1.442332,0.289257 2.610017,1.070271 3.472728,2.273097 0.425266,0.592921 1.258584,1.100665 1.987591,1.052041 l 1.401048,-0.09345 C 39.340664,13.82848 39.745574,13.224645 39.437164,12.56265 39.153985,11.954814 38.836369,11.409284 38.486685,10.922382 38.060937,10.329568 37.223751,9.4815016 36.649247,9.0308785 35.282404,7.9587688 33.739424,7.3398924 31.916463,7.1443165 31.190225,7.0664021 30.001377,7.0667689 29.27509,7.1431391 Z"
       id="text1"
       aria-label="C#"
       inkscape:path-effect="#path-effect3;#path-effect4"
       inkscape:original-d="m 35.103588,17.34634 6.842023,0.177088 c -0.450769,3.541753 -1.67965,6.278562 -3.686643,8.210427 -1.996261,1.931865 -4.604279,2.897798 -7.824054,2.897798 -3.273439,0 -6.015614,-1.094724 -8.226526,-3.284171 -2.20018,-2.20018 -3.30027,-4.926256 -3.30027,-8.178229 0,-3.273439 1.121555,-6.026347 3.364665,-8.2587245 2.253843,-2.2323777 5.028216,-3.3485665 8.32312,-3.3485665 3.241241,0 5.945852,1.0947236 8.113834,3.2841709 1.502562,1.5132951 2.565088,3.6222481 3.187578,6.3268591 l -7.003012,0.466867 c -0.783479,-2.404099 -2.269942,-3.606148 -4.459389,-3.606148 -1.395236,0 -2.548989,0.482966 -3.461259,1.448899 -0.901537,0.965933 -1.352305,2.194814 -1.352305,3.686643 0,1.438166 0.445402,2.629483 1.336206,3.57395 0.890805,0.933735 2.017726,1.400603 3.380765,1.400603 1.384503,0 2.484593,-0.413205 3.30027,-1.239614 0.826409,-0.826409 1.314741,-2.012359 1.464997,-3.557852 z"
       sodipodi:nodetypes="cccscscscccscscscc"
       transform="translate(0,2.0763282)" /><path
       style="font-size:28.5898px;font-family:'Bauhaus 93';-inkscape-font-specification:'Bauhaus 93, ';baseline-shift:baseline;fill:#0079d6;stroke-width:2.38247"
       d="m 53.937585,20.84999 -0.565101,4.033274 a 0.60848888,0.60848888 138.98789 0 1 -0.602603,0.524058 h -2.082615 a 0.46020299,0.46020299 48.987893 0 1 -0.455751,-0.524058 l 0.565101,-4.033274 a 0.46020299,0.46020299 48.987893 0 0 -0.455751,-0.524058 h -1.761538 a 0.60848888,0.60848888 138.98789 0 0 -0.602603,0.524058 l -0.565101,4.033274 a 0.60848888,0.60848888 138.98789 0 1 -0.602603,0.524058 l -2.096575,0 a 0.45895285,0.45895285 49.065052 0 1 -0.45434,-0.523859 l 0.576239,-4.033672 a 0.45895285,0.45895285 49.065052 0 0 -0.45434,-0.523859 h -1.58006 a 0.45983903,0.45983903 49.010338 0 1 -0.455341,-0.524001 l 0.285083,-2.023168 a 0.60897049,0.60897049 139.01034 0 1 0.603013,-0.524001 h 1.58006 a 0.6071773,0.6071773 138.92667 0 0 0.601483,-0.524214 l 0.246265,-1.785424 A 0.46119709,0.46119709 48.926665 0 0 45.203636,14.42091 l -1.566101,0 a 0.46191395,0.46191395 48.882584 0 1 -0.457678,-0.524325 l 0.275798,-2.02252 a 0.606235,0.606235 138.88258 0 1 0.600676,-0.524325 h 1.58006 a 0.60822082,0.60822082 138.97539 0 0 0.602374,-0.52409 l 0.5516,-3.9494511 a 0.60822082,0.60822082 138.97539 0 1 0.602374,-0.5240903 l 2.278053,0 a 0.46040591,0.46040591 48.975386 0 1 0.45598,0.5240903 L 49.575173,10.82565 a 0.46040591,0.46040591 48.975386 0 0 0.45598,0.52409 h 1.384622 a 0.6082207,0.6082207 138.97539 0 0 0.602374,-0.52409 l 0.551599,-3.9494511 a 0.6082207,0.6082207 138.97539 0 1 0.602374,-0.5240903 h 2.278053 a 0.46040591,0.46040591 48.975386 0 1 0.45598,0.5240903 L 55.354556,10.82565 a 0.46040591,0.46040591 48.975386 0 0 0.45598,0.52409 h 1.887177 a 0.45983888,0.45983888 49.010347 0 1 0.455341,0.524001 L 57.86797,13.896909 A 0.60897069,0.60897069 139.01035 0 1 57.264957,14.42091 H 55.37778 a 0.61014632,0.61014632 139.06505 0 0 -0.604014,0.523859 l -0.255162,1.786134 a 0.45895287,0.45895287 49.065051 0 0 0.45434,0.523859 h 1.887177 a 0.45983903,0.45983903 49.010338 0 1 0.455341,0.524001 l -0.285083,2.023168 a 0.60897049,0.60897049 139.01034 0 1 -0.603013,0.524001 l -1.887178,0 a 0.60848888,0.60848888 138.98789 0 0 -0.602603,0.524058 z m -2.759128,-6.42908 h -1.775498 a 0.60717709,0.60717709 138.92666 0 0 -0.601482,0.524214 l -0.246266,1.785424 a 0.46119725,0.46119725 48.926655 0 0 0.456872,0.524214 h 1.761538 a 0.61014632,0.61014632 139.06505 0 0 0.604014,-0.523859 l 0.255162,-1.786134 a 0.45895287,0.45895287 49.065051 0 0 -0.45434,-0.523859 z"
       id="text1-5-2"
       transform="matrix(0.99372748,0,0,1.0063121,0,2.0763282)"
       aria-label="#"
       inkscape:path-effect="#path-effect7"
       inkscape:original-d="m 54.011011,20.325932 -0.711953,5.08139 h -3.140969 l 0.711953,-5.08139 H 48.05015 l -0.711953,5.08139 h -3.154929 l 0.725913,-5.08139 h -2.638414 l 0.432755,-3.07117 h 2.638414 l 0.390877,-2.833852 h -2.624455 l 0.418796,-3.07117 h 2.638414 l 0.697994,-4.9976314 h 3.336407 L 49.501976,11.34974 h 2.442976 l 0.697993,-4.9976314 h 3.336407 L 55.281359,11.34974 h 2.945531 l -0.432756,3.07117 h -2.945531 l -0.404836,2.833852 h 2.945531 l -0.432755,3.07117 z M 51.707634,14.42091 h -2.833852 l -0.390876,2.833852 h 2.819892 z" /><path
       style="font-stretch:condensed;font-size:32.9705px;font-family:Impact;-inkscape-font-specification:'Impact Condensed';fill:#0079d6;stroke-width:2.74753"
       d="m 26.327705,28.567579 -7.100723,24.716404 a 0.59782167,0.59782167 53.014359 0 0 0.57458,0.762892 l 2.482813,0 a 1.052083,1.052083 142.96707 0 0 1.01166,-0.763252 L 30.352403,28.56794 a 0.59884914,0.59884914 52.967065 0 0 -0.57584,-0.763253 h -2.435938 a 1.0538912,1.0538912 143.01436 0 0 -1.01292,0.762892 z m 6.43792,5.38828 v 1.785547 a 1.1733075,1.1733075 55.921401 0 0 0.736765,1.089074 l 8.778423,3.518728 a 0.31877006,0.31877006 89.962402 0 1 3.88e-4,0.591614 l -8.779199,3.532419 a 1.1749681,1.1749681 124.041 0 0 -0.736377,1.09004 v 1.767969 a 0.52856539,0.52856539 33.660011 0 0 0.732372,0.487693 l 13.201272,-5.516792 a 1.1919792,1.1919792 123.66001 0 0 0.732372,-1.099807 l 0,-1.148828 A 1.1896372,1.1896372 56.287983 0 0 46.698715,38.955039 L 33.498551,33.466836 a 0.52960597,0.52960597 146.28798 0 0 -0.732926,0.489023 z M 16.080079,33.470002 2.876952,38.985076 a 1.1917716,1.1917716 123.66462 0 0 -0.7324207,1.09969 v 1.133203 A 1.1908932,1.1908932 56.315891 0 0 2.87716,42.31716 l 13.202711,5.504352 A 0.5290474,0.5290474 146.31589 0 0 16.8125,47.333203 v -1.7875 A 1.1731001,1.1731001 55.916698 0 0 16.075686,44.45675 L 7.2973605,40.939734 A 0.31869441,0.31869441 89.957699 0 1 7.2969238,40.348241 L 16.076123,36.815822 A 1.1749681,1.1749681 124.041 0 0 16.8125,35.725781 v -1.767969 a 0.52865747,0.52865747 33.664616 0 0 -0.732421,-0.48781 z"
       id="text1-2"
       aria-label="&lt;/&gt;"
       inkscape:path-effect="#path-effect5;#path-effect6"
       inkscape:original-d="M 17.222398,48.741609 1.7352781,42.285959 V 39.017887 L 17.222398,32.546138 v 4.250104 l -9.562733,3.847632 9.562733,3.831533 z m 13.89333,-21.347111 -7.727461,27.062213 h -4.926256 l 7.775758,-27.062213 z m 1.239614,5.15164 15.48712,6.439551 v 3.284171 l -15.48712,6.471749 v -4.250104 l 9.562733,-3.847631 -9.562733,-3.831533 z"
       transform="translate(1.5875,-0.04033844)" /><path
       d="m 64.394392,31.601249 c -0.353511,-0.588145 -1.116854,-0.778347 -1.705005,-0.424825 -0.151766,0.09126 -0.291423,0.193124 -0.427952,0.297812 -0.625516,0.466622 -1.279615,1.217802 -1.807298,1.783699 -4.635472,4.999187 -8.836255,10.441059 -12.302049,16.328486 -0.344825,0.573297 -0.702351,1.202487 -0.99167,1.806222 -0.278498,0.569038 -0.575212,1.195983 -0.84014,1.774768 -1.823015,-3.337411 -4.691218,-6.99988 -8.095829,-8.498606 -1.361222,-0.56321 -2.708129,0.870134 -2.03408,2.200373 0.199789,0.392231 0.433049,0.758125 0.666473,1.126771 1.138044,1.792956 2.475455,3.43056 3.657352,5.186028 1.502678,2.199231 2.768311,4.527877 3.992401,6.887702 0.843224,1.591174 3.231602,1.352541 3.734421,-0.392724 0.844206,-1.775989 1.711872,-3.530457 2.639782,-5.260405 0.296396,-0.56112 0.638744,-1.158624 0.923575,-1.723678 0.276938,-0.555214 0.588183,-1.197307 0.87613,-1.748575 2.386942,-4.672805 5.250825,-9.079225 8.34758,-13.325608 0.524813,-0.715795 1.241427,-1.684827 1.778466,-2.392743 0.341478,-0.457472 0.888791,-1.132106 1.18215,-1.607555 0.182674,-0.28683 0.354095,-0.579462 0.486755,-0.8969 0.147614,-0.353069 0.130636,-0.76764 -0.081,-1.120242 z"
       id="path2"
       style="fill:#85cc00;fill-opacity:1;stroke-width:0.0233891" /></g></svg>
